<svg aria-hidden="true" style="position: absolute; width: 0; height: 0; overflow: hidden;" version="1.1" xmlns="http://www.w3.org/2000/svg" xmlns:xlink="http://www.w3.org/1999/xlink">
<defs>
<symbol id="icon-chevron-up" viewBox="0 0 20 20">
<path d="M15.484 12.452c-0.436 0.446-1.043 0.481-1.576 0l-3.908-3.747-3.908 3.747c-0.533 0.481-1.141 0.446-1.574 0-0.436-0.445-0.408-1.197 0-1.615 0.406-0.418 4.695-4.502 4.695-4.502 0.217-0.223 0.502-0.335 0.787-0.335s0.57 0.112 0.789 0.335c0 0 4.287 4.084 4.695 4.502s0.436 1.17 0 1.615z"></path>
</symbol>
<symbol id="icon-view-list" viewBox="0 0 20 20">
<path d="M0 3h20v2h-20v-2zM0 7h20v2h-20v-2zM0 11h20v2h-20v-2zM0 15h20v2h-20v-2z"></path>
</symbol>
<symbol id="icon-percent" viewBox="0 0 24 24">
<path d="M18.293 4.293l-14 14c-0.391 0.391-0.391 1.024 0 1.414s1.024 0.391 1.414 0l14-14c0.391-0.391 0.391-1.024 0-1.414s-1.024-0.391-1.414 0zM10 6.5c0-0.966-0.393-1.843-1.025-2.475s-1.509-1.025-2.475-1.025-1.843 0.393-2.475 1.025-1.025 1.509-1.025 2.475 0.393 1.843 1.025 2.475 1.509 1.025 2.475 1.025 1.843-0.393 2.475-1.025 1.025-1.509 1.025-2.475zM8 6.5c0 0.414-0.167 0.788-0.439 1.061s-0.647 0.439-1.061 0.439-0.788-0.167-1.061-0.439-0.439-0.647-0.439-1.061 0.167-0.788 0.439-1.061 0.647-0.439 1.061-0.439 0.788 0.167 1.061 0.439 0.439 0.647 0.439 1.061zM21 17.5c0-0.966-0.393-1.843-1.025-2.475s-1.509-1.025-2.475-1.025-1.843 0.393-2.475 1.025-1.025 1.509-1.025 2.475 0.393 1.843 1.025 2.475 1.509 1.025 2.475 1.025 1.843-0.393 2.475-1.025 1.025-1.509 1.025-2.475zM19 17.5c0 0.414-0.167 0.788-0.439 1.061s-0.647 0.439-1.061 0.439-0.788-0.167-1.061-0.439-0.439-0.647-0.439-1.061 0.167-0.788 0.439-1.061 0.647-0.439 1.061-0.439 0.788 0.167 1.061 0.439 0.439 0.647 0.439 1.061z"></path>
</symbol>
<symbol id="icon-local_grocery_store" viewBox="0 0 24 24">
<path d="M17.016 18q0.797 0 1.383 0.609t0.586 1.406-0.586 1.383-1.383 0.586-1.406-0.586-0.609-1.383 0.609-1.406 1.406-0.609zM0.984 2.016h3.281l0.938 1.969h14.813q0.422 0 0.703 0.305t0.281 0.727q0 0.047-0.141 0.469l-3.563 6.469q-0.563 1.031-1.734 1.031h-7.453l-0.891 1.641-0.047 0.141q0 0.234 0.234 0.234h11.578v2.016h-12q-0.797 0-1.383-0.609t-0.586-1.406q0-0.469 0.234-0.938l1.359-2.484-3.609-7.594h-2.016v-1.969zM6.984 18q0.797 0 1.406 0.609t0.609 1.406-0.609 1.383-1.406 0.586-1.383-0.586-0.586-1.383 0.586-1.406 1.383-0.609z"></path>
</symbol>
<symbol id="icon-redeem" viewBox="0 0 24 24">
<path d="M20.016 14.016v-6h-5.109l2.109 2.813-1.641 1.172q-3-4.078-3.375-4.594-0.375 0.516-3.375 4.594l-1.641-1.172 2.109-2.813h-5.109v6h16.031zM20.016 18.984v-1.969h-16.031v1.969h16.031zM9 3.984q-0.422 0-0.703 0.305t-0.281 0.727 0.281 0.703 0.703 0.281 0.703-0.281 0.281-0.703-0.281-0.727-0.703-0.305zM15 3.984q-0.422 0-0.703 0.305t-0.281 0.727 0.281 0.703 0.703 0.281 0.703-0.281 0.281-0.703-0.281-0.727-0.703-0.305zM20.016 6q0.844 0 1.406 0.586t0.563 1.43v10.969q0 0.844-0.563 1.43t-1.406 0.586h-16.031q-0.844 0-1.406-0.586t-0.563-1.43v-10.969q0-0.844 0.563-1.43t1.406-0.586h2.203q-0.188-0.656-0.188-0.984 0-1.219 0.891-2.109t2.109-0.891q1.547 0 2.484 1.313l0.516 0.703 0.516-0.703q0.328-0.563 1.078-0.938t1.406-0.375q1.219 0 2.109 0.891t0.891 2.109q0 0.328-0.188 0.984h2.203z"></path>
</symbol>
<symbol id="icon-search" viewBox="0 0 32 32">
<path d="M31.715 28.953c0.381 0.381 0.381 0.999 0 1.381l-1.381 1.381c-0.382 0.381-1 0.381-1.381 0l-9.668-9.668c-0.105-0.105-0.175-0.229-0.222-0.361-1.983 1.449-4.418 2.314-7.063 2.314-6.627 0-12-5.373-12-12s5.373-12 12-12c6.627 0 12 5.373 12 12 0 2.645-0.865 5.080-2.314 7.063 0.132 0.047 0.256 0.116 0.361 0.222l9.668 9.668zM12 4c-4.418 0-8 3.582-8 8s3.582 8 8 8 8-3.582 8-8c0-4.418-3.582-8-8-8z"></path>
</symbol>
<symbol id="icon-fire" viewBox="0 0 32 32">
<path d="M10.031 32c-2.133-4.438-0.997-6.981 0.642-9.376 1.795-2.624 2.258-5.221 2.258-5.221s1.411 1.834 0.847 4.703c2.493-2.775 2.963-7.196 2.587-8.889 5.635 3.938 8.043 12.464 4.798 18.783 17.262-9.767 4.294-24.38 2.036-26.027 0.753 1.646 0.895 4.433-0.625 5.785-2.573-9.759-8.937-11.759-8.937-11.759 0.753 5.033-2.728 10.536-6.084 14.648-0.118-2.007-0.243-3.392-1.298-5.312-0.237 3.646-3.023 6.617-3.777 10.27-1.022 4.946 0.765 8.568 7.555 12.394z"></path>
</symbol>
<symbol id="icon-enter" viewBox="0 0 32 32">
<path d="M12 16h-10v-4h10v-4l6 6-6 6zM32 0v26l-12 6v-6h-12v-8h2v6h10v-18l8-4h-18v8h-2v-10z"></path>
</symbol>
<symbol id="icon-instagram" viewBox="0 0 32 32">
<path d="M16 2.881c4.275 0 4.781 0.019 6.462 0.094 1.563 0.069 2.406 0.331 2.969 0.55 0.744 0.288 1.281 0.638 1.837 1.194 0.563 0.563 0.906 1.094 1.2 1.838 0.219 0.563 0.481 1.412 0.55 2.969 0.075 1.688 0.094 2.194 0.094 6.463s-0.019 4.781-0.094 6.463c-0.069 1.563-0.331 2.406-0.55 2.969-0.288 0.744-0.637 1.281-1.194 1.837-0.563 0.563-1.094 0.906-1.837 1.2-0.563 0.219-1.413 0.481-2.969 0.55-1.688 0.075-2.194 0.094-6.463 0.094s-4.781-0.019-6.463-0.094c-1.563-0.069-2.406-0.331-2.969-0.55-0.744-0.288-1.281-0.637-1.838-1.194-0.563-0.563-0.906-1.094-1.2-1.837-0.219-0.563-0.481-1.413-0.55-2.969-0.075-1.688-0.094-2.194-0.094-6.463s0.019-4.781 0.094-6.463c0.069-1.563 0.331-2.406 0.55-2.969 0.288-0.744 0.638-1.281 1.194-1.838 0.563-0.563 1.094-0.906 1.838-1.2 0.563-0.219 1.412-0.481 2.969-0.55 1.681-0.075 2.188-0.094 6.463-0.094zM16 0c-4.344 0-4.887 0.019-6.594 0.094-1.7 0.075-2.869 0.35-3.881 0.744-1.056 0.412-1.95 0.956-2.837 1.85-0.894 0.888-1.438 1.781-1.85 2.831-0.394 1.019-0.669 2.181-0.744 3.881-0.075 1.713-0.094 2.256-0.094 6.6s0.019 4.887 0.094 6.594c0.075 1.7 0.35 2.869 0.744 3.881 0.413 1.056 0.956 1.95 1.85 2.837 0.887 0.887 1.781 1.438 2.831 1.844 1.019 0.394 2.181 0.669 3.881 0.744 1.706 0.075 2.25 0.094 6.594 0.094s4.888-0.019 6.594-0.094c1.7-0.075 2.869-0.35 3.881-0.744 1.050-0.406 1.944-0.956 2.831-1.844s1.438-1.781 1.844-2.831c0.394-1.019 0.669-2.181 0.744-3.881 0.075-1.706 0.094-2.25 0.094-6.594s-0.019-4.887-0.094-6.594c-0.075-1.7-0.35-2.869-0.744-3.881-0.394-1.063-0.938-1.956-1.831-2.844-0.887-0.887-1.781-1.438-2.831-1.844-1.019-0.394-2.181-0.669-3.881-0.744-1.712-0.081-2.256-0.1-6.6-0.1v0z"></path>
<path d="M16 7.781c-4.537 0-8.219 3.681-8.219 8.219s3.681 8.219 8.219 8.219 8.219-3.681 8.219-8.219c0-4.537-3.681-8.219-8.219-8.219zM16 21.331c-2.944 0-5.331-2.387-5.331-5.331s2.387-5.331 5.331-5.331c2.944 0 5.331 2.387 5.331 5.331s-2.387 5.331-5.331 5.331z"></path>
<path d="M26.462 7.456c0 1.060-0.859 1.919-1.919 1.919s-1.919-0.859-1.919-1.919c0-1.060 0.859-1.919 1.919-1.919s1.919 0.859 1.919 1.919z"></path>
</symbol>
<symbol id="icon-twitter" viewBox="0 0 32 32">
<path d="M32 7.075c-1.175 0.525-2.444 0.875-3.769 1.031 1.356-0.813 2.394-2.1 2.887-3.631-1.269 0.75-2.675 1.3-4.169 1.594-1.2-1.275-2.906-2.069-4.794-2.069-3.625 0-6.563 2.938-6.563 6.563 0 0.512 0.056 1.012 0.169 1.494-5.456-0.275-10.294-2.888-13.531-6.862-0.563 0.969-0.887 2.1-0.887 3.3 0 2.275 1.156 4.287 2.919 5.463-1.075-0.031-2.087-0.331-2.975-0.819 0 0.025 0 0.056 0 0.081 0 3.181 2.263 5.838 5.269 6.437-0.55 0.15-1.131 0.231-1.731 0.231-0.425 0-0.831-0.044-1.237-0.119 0.838 2.606 3.263 4.506 6.131 4.563-2.25 1.762-5.075 2.813-8.156 2.813-0.531 0-1.050-0.031-1.569-0.094 2.913 1.869 6.362 2.95 10.069 2.95 12.075 0 18.681-10.006 18.681-18.681 0-0.287-0.006-0.569-0.019-0.85 1.281-0.919 2.394-2.075 3.275-3.394z"></path>
</symbol>
<symbol id="icon-linkedin" viewBox="0 0 32 32">
<path d="M29 0h-26c-1.65 0-3 1.35-3 3v26c0 1.65 1.35 3 3 3h26c1.65 0 3-1.35 3-3v-26c0-1.65-1.35-3-3-3zM12 26h-4v-14h4v14zM10 10c-1.106 0-2-0.894-2-2s0.894-2 2-2c1.106 0 2 0.894 2 2s-0.894 2-2 2zM26 26h-4v-8c0-1.106-0.894-2-2-2s-2 0.894-2 2v8h-4v-14h4v2.481c0.825-1.131 2.087-2.481 3.5-2.481 2.488 0 4.5 2.238 4.5 5v9z"></path>
</symbol>
<symbol id="icon-location" viewBox="0 0 32 32">
<path d="M16.002 17.746c3.309 0 6-2.692 6-6s-2.691-6-6-6c-3.309 0-6 2.691-6 6s2.691 6 6 6zM16.002 6.746c2.758 0 5 2.242 5 5s-2.242 5-5 5c-2.758 0-5-2.242-5-5s2.242-5 5-5zM16 0c-6.618 0-12 5.316-12 12.001 0 7 6.001 14.161 10.376 19.194 0.016 0.020 0.718 0.805 1.586 0.805 0.002 0 0.073 0 0.077 0 0.867 0 1.57-0.785 1.586-0.805 4.377-5.033 10.377-12.193 10.377-19.194 0-6.685-5.383-12.001-12.002-12.001zM16.117 29.883c-0.021 0.020-0.082 0.064-0.135 0.098-0.010-0.027-0.084-0.086-0.129-0.133-3.665-4.217-9.853-11.334-9.853-17.847 0-5.514 4.487-10.001 10-10.001 5.516 0 10.002 4.487 10.002 10.002 0 6.512-6.188 13.629-9.885 17.881z"></path>
</symbol>
<symbol id="icon-shopping-basket" viewBox="0 0 32 28">
<path d="M30 12c1.109 0 2 0.891 2 2s-0.891 2-2 2h-0.234l-1.797 10.344c-0.172 0.953-1 1.656-1.969 1.656h-20c-0.969 0-1.797-0.703-1.969-1.656l-1.797-10.344h-0.234c-1.109 0-2-0.891-2-2s0.891-2 2-2h28zM7.578 24.5c0.547-0.047 0.969-0.531 0.922-1.078l-0.5-6.5c-0.047-0.547-0.531-0.969-1.078-0.922s-0.969 0.531-0.922 1.078l0.5 6.5c0.047 0.516 0.484 0.922 1 0.922h0.078zM14 23.5v-6.5c0-0.547-0.453-1-1-1s-1 0.453-1 1v6.5c0 0.547 0.453 1 1 1s1-0.453 1-1zM20 23.5v-6.5c0-0.547-0.453-1-1-1s-1 0.453-1 1v6.5c0 0.547 0.453 1 1 1s1-0.453 1-1zM25.5 23.578l0.5-6.5c0.047-0.547-0.375-1.031-0.922-1.078s-1.031 0.375-1.078 0.922l-0.5 6.5c-0.047 0.547 0.375 1.031 0.922 1.078h0.078c0.516 0 0.953-0.406 1-0.922zM7.438 4.562l-1.453 6.438h-2.063l1.578-6.891c0.406-1.828 2.016-3.109 3.891-3.109h2.609c0-0.547 0.453-1 1-1h6c0.547 0 1 0.453 1 1h2.609c1.875 0 3.484 1.281 3.891 3.109l1.578 6.891h-2.063l-1.453-6.438c-0.219-0.922-1.016-1.563-1.953-1.563h-2.609c0 0.547-0.453 1-1 1h-6c-0.547 0-1-0.453-1-1h-2.609c-0.938 0-1.734 0.641-1.953 1.563z"></path>
</symbol>
<symbol id="icon-cancel" viewBox="0 0 32 32">
<path d="M19.587 16.001l6.096 6.096c0.396 0.396 0.396 1.039 0 1.435l-2.151 2.151c-0.396 0.396-1.038 0.396-1.435 0l-6.097-6.096-6.097 6.096c-0.396 0.396-1.038 0.396-1.434 0l-2.152-2.151c-0.396-0.396-0.396-1.038 0-1.435l6.097-6.096-6.097-6.097c-0.396-0.396-0.396-1.039 0-1.435l2.153-2.151c0.396-0.396 1.038-0.396 1.434 0l6.096 6.097 6.097-6.097c0.396-0.396 1.038-0.396 1.435 0l2.151 2.152c0.396 0.396 0.396 1.038 0 1.435l-6.096 6.096z"></path>
</symbol>
<symbol id="icon-more-horizontal" viewBox="0 0 24 24">
<path d="M14 12c0-0.552-0.225-1.053-0.586-1.414s-0.862-0.586-1.414-0.586-1.053 0.225-1.414 0.586-0.586 0.862-0.586 1.414 0.225 1.053 0.586 1.414 0.862 0.586 1.414 0.586 1.053-0.225 1.414-0.586 0.586-0.862 0.586-1.414zM21 12c0-0.552-0.225-1.053-0.586-1.414s-0.862-0.586-1.414-0.586-1.053 0.225-1.414 0.586-0.586 0.862-0.586 1.414 0.225 1.053 0.586 1.414 0.862 0.586 1.414 0.586 1.053-0.225 1.414-0.586 0.586-0.862 0.586-1.414zM7 12c0-0.552-0.225-1.053-0.586-1.414s-0.862-0.586-1.414-0.586-1.053 0.225-1.414 0.586-0.586 0.862-0.586 1.414 0.225 1.053 0.586 1.414 0.862 0.586 1.414 0.586 1.053-0.225 1.414-0.586 0.586-0.862 0.586-1.414z"></path>
</symbol>
<symbol id="icon-rocket" viewBox="0 0 32 32">
<path d="M22 2l-10 10h-6l-6 8c0 0 6.357-1.77 10.065-0.94l-10.065 12.94 13.184-10.255c1.839 4.208-1.184 10.255-1.184 10.255l8-6v-6l10-10 2-10-10 2z"></path>
</symbol>
</defs>
</svg>
